<svg viewBox="0 0 18 19" fill="none" xmlns="http://www.w3.org/2000/svg"><path d="M15.652 11.256c-.319.198-.694.223-.98.065-.361-.202-.56-.674-.56-1.33V8.027c0-.948-.381-1.623-1.018-1.805-1.078-.31-1.889.99-2.194 1.478l-1.902 3.038V7.026c-.02-.854-.303-1.365-.837-1.52-.354-.101-.883-.06-1.398.715l-4.26 6.74a7.318 7.318 0 0 1-.867-3.46c0-4.06 3.303-7.364 7.362-7.364 4.06 0 7.362 3.303 7.362 7.364 0 .007.002.013.003.02 0 .007-.002.013-.001.02.038.786-.22 1.412-.71 1.717ZM17.996 9.5v-.04C17.973 4.514 13.946.5 8.998.5 4.037.5 0 4.537 0 9.5c0 4.962 4.037 9 8.998 9 2.277 0 4.45-.853 6.118-2.4a.818.818 0 1 0-1.112-1.2 7.336 7.336 0 0 1-5.006 1.964 7.344 7.344 0 0 1-5.478-2.451l3.843-6.08v2.803c0 1.346.53 1.781.974 1.909.444.127 1.124.04 1.838-1.101l2.113-3.376c.068-.109.13-.203.187-.284V9.99c0 1.258.512 2.264 1.403 2.76.804.447 1.815.407 2.638-.105.999-.622 1.536-1.766 1.48-3.146Z" fill="#728A96"></path></svg>