<svg width="74" height="22" fill="none" xmlns="http://www.w3.org/2000/svg"><rect x="2.57509" y="1.57509" width="10.4927" height="18.6074" rx="2.42987" stroke="white" stroke-width="1.15017"></rect><path d="M4.11691 9.11475H7.02763M11.526 9.11475H8.61529" stroke="white" stroke-width="0.882035" stroke-linecap="round"></path><path d="M5.17532 10.7905H7.0276M10.4675 10.7905H8.61526" stroke="white" stroke-width="0.882035" stroke-linecap="round"></path><path d="M6.23373 12.3779H7.02757M9.40906 12.3779H8.61523" stroke="white" stroke-width="0.882035" stroke-linecap="round"></path><circle cx="0.529221" cy="0.529221" r="0.529221" transform="matrix(1 0 0 -1 7.29221 14.6714)" fill="white"></circle><path d="M6.41022 3.82227H9.40913" stroke="white" stroke-width="0.882035" stroke-linecap="round"></path><path d="M21.1885 5.32H23.7777L27.2452 13.7834H27.382L30.8495 5.32H33.4388V17H31.4085V8.9757H31.3001L28.0721 16.9658H26.5551L23.3271 8.95859H23.2188V17H21.1885V5.32ZM38.9909 17.1711C38.1354 17.1711 37.394 16.9829 36.7667 16.6065C36.1393 16.2301 35.6526 15.7035 35.3067 15.0267C34.9645 14.3499 34.7934 13.5591 34.7934 12.6542C34.7934 11.7493 34.9645 10.9566 35.3067 10.276C35.6526 9.59544 36.1393 9.06695 36.7667 8.69055C37.394 8.31414 38.1354 8.12594 38.9909 8.12594C39.8463 8.12594 40.5877 8.31414 41.2151 8.69055C41.8424 9.06695 42.3272 9.59544 42.6694 10.276C43.0154 10.9566 43.1884 11.7493 43.1884 12.6542C43.1884 13.5591 43.0154 14.3499 42.6694 15.0267C42.3272 15.7035 41.8424 16.2301 41.2151 16.6065C40.5877 16.9829 39.8463 17.1711 38.9909 17.1711ZM39.0023 15.5172C39.4661 15.5172 39.8539 15.3898 40.1657 15.1351C40.4775 14.8765 40.7094 14.5305 40.8615 14.0971C41.0174 13.6637 41.0953 13.1808 41.0953 12.6485C41.0953 12.1124 41.0174 11.6277 40.8615 11.1942C40.7094 10.757 40.4775 10.4091 40.1657 10.1505C39.8539 9.89201 39.4661 9.76273 39.0023 9.76273C38.527 9.76273 38.1316 9.89201 37.816 10.1505C37.5043 10.4091 37.2704 10.757 37.1145 11.1942C36.9625 11.6277 36.8864 12.1124 36.8864 12.6485C36.8864 13.1808 36.9625 13.6637 37.1145 14.0971C37.2704 14.5305 37.5043 14.8765 37.816 15.1351C38.1316 15.3898 38.527 15.5172 39.0023 15.5172ZM44.5501 17V5.32H46.6146V9.68859H46.7002C46.8066 9.47568 46.9568 9.24945 47.1507 9.00992C47.3446 8.76659 47.607 8.55937 47.9378 8.38828C48.2685 8.21339 48.6906 8.12594 49.2039 8.12594C49.8806 8.12594 50.4909 8.29893 51.0346 8.64492C51.5821 8.98711 52.0155 9.49469 52.3349 10.1677C52.6581 10.8368 52.8196 11.6581 52.8196 12.6314C52.8196 13.5933 52.6619 14.4108 52.3463 15.0837C52.0307 15.7567 51.6011 16.27 51.0574 16.6236C50.5137 16.9772 49.8977 17.154 49.2096 17.154C48.7077 17.154 48.2914 17.0703 47.9606 16.903C47.6298 16.7358 47.3637 16.5342 47.1621 16.2985C46.9644 16.059 46.8104 15.8328 46.7002 15.6198H46.5804V17H44.5501ZM46.5747 12.62C46.5747 13.1865 46.6546 13.6827 46.8143 14.1085C46.9777 14.5343 47.2116 14.867 47.5157 15.1066C47.8237 15.3423 48.1963 15.4602 48.6335 15.4602C49.0898 15.4602 49.4719 15.3385 49.7799 15.0952C50.0878 14.848 50.3198 14.5115 50.4757 14.0857C50.6353 13.6561 50.7152 13.1675 50.7152 12.62C50.7152 12.0763 50.6372 11.5934 50.4814 11.1714C50.3255 10.7494 50.0935 10.4186 49.7856 10.1791C49.4776 9.93953 49.0936 9.81977 48.6335 9.81977C48.1925 9.81977 47.818 9.93573 47.51 10.1677C47.2021 10.3996 46.9682 10.7247 46.8085 11.1429C46.6527 11.5611 46.5747 12.0535 46.5747 12.62ZM54.093 17V8.24H56.1575V17H54.093ZM55.1309 6.99672C54.804 6.99672 54.5226 6.88836 54.2869 6.67164C54.0512 6.45112 53.9333 6.18687 53.9333 5.87891C53.9333 5.56714 54.0512 5.30289 54.2869 5.08617C54.5226 4.86565 54.804 4.75539 55.1309 4.75539C55.4617 4.75539 55.7431 4.86565 55.975 5.08617C56.2107 5.30289 56.3286 5.56714 56.3286 5.87891C56.3286 6.18687 56.2107 6.45112 55.975 6.67164C55.7431 6.88836 55.4617 6.99672 55.1309 6.99672ZM59.8632 5.32V17H57.7987V5.32H59.8632ZM65.3825 17.1711C64.5043 17.1711 63.7457 16.9886 63.107 16.6236C62.472 16.2548 61.9835 15.7339 61.6413 15.0609C61.2991 14.3842 61.128 13.5876 61.128 12.6713C61.128 11.7702 61.2991 10.9794 61.6413 10.2988C61.9873 9.61445 62.4701 9.08216 63.0899 8.70195C63.7096 8.31794 64.4377 8.12594 65.2742 8.12594C65.8141 8.12594 66.3236 8.21339 66.8026 8.38828C67.2855 8.55937 67.7113 8.82552 68.0801 9.18672C68.4527 9.54792 68.7455 10.008 68.9584 10.5669C69.1713 11.122 69.2778 11.7835 69.2778 12.5516V13.1846H62.0975V11.793H67.2988C67.295 11.3976 67.2094 11.0459 67.0421 10.738C66.8749 10.4262 66.641 10.181 66.3407 10.0023C66.0441 9.82357 65.6981 9.73422 65.3027 9.73422C64.8807 9.73422 64.51 9.83688 64.1906 10.0422C63.8712 10.2437 63.6222 10.5098 63.4435 10.8406C63.2686 11.1676 63.1792 11.5269 63.1754 11.9185V13.1333C63.1754 13.6428 63.2686 14.08 63.4549 14.445C63.6412 14.8062 63.9016 15.0837 64.2362 15.2777C64.5708 15.4678 64.9624 15.5628 65.4111 15.5628C65.7114 15.5628 65.9833 15.521 66.2266 15.4373C66.4699 15.3499 66.681 15.2225 66.8596 15.0552C67.0383 14.8879 67.1733 14.6807 67.2646 14.4336L69.1922 14.6503C69.0706 15.1598 68.8386 15.6046 68.4964 15.9848C68.1581 16.3613 67.7246 16.654 67.1961 16.8631C66.6676 17.0684 66.0631 17.1711 65.3825 17.1711Z" fill="white"></path></svg>