<svg width="74" height="96" fill="none" xmlns="http://www.w3.org/2000/svg"><path d="M6.425 33.267l25.84 44.79c1.88 3.257 6.587 3.257 8.465 0l25.846-44.79-.433-.25.433.25c4.063-7.04-1.064-15.767-9.138-15.767H15.563c-8.078 0-13.206 8.717-9.138 15.767zm9.133-7.116h16.614v36.157l-4.678-9.054-.003-.007-.004-.008-13.58-24.286-.003-.005c-.704-1.223.164-2.797 1.654-2.797zm43.523 2.791l-.003.006-13.574 24.297-.004.007-.004.007-4.683 9.06V26.146h16.615c1.49 0 2.358 1.574 1.653 2.796z" fill="white" stroke="#0098EA"/></svg>